<?xml version="1.0" encoding="UTF-8" standalone="no" ?>
<!DOCTYPE svg PUBLIC "-//W3C//DTD SVG 1.1//EN" "http://www.w3.org/Graphics/SVG/1.1/DTD/svg11.dtd">
<svg xmlns="http://www.w3.org/2000/svg" xmlns:xlink="http://www.w3.org/1999/xlink" version="1.1" width="1080" height="1080" viewBox="0 0 1080 1080" xml:space="preserve">
<desc>Created with Fabric.js 5.2.4</desc>
<defs>
</defs>
<g transform="matrix(1 0 0 1 540 540)" id="3f868742-5db9-439d-8a11-33fa8c664dde"  >
<rect style="stroke: none; stroke-width: 1; stroke-dasharray: none; stroke-linecap: butt; stroke-dashoffset: 0; stroke-linejoin: miter; stroke-miterlimit: 4; fill: rgb(255,255,255); fill-rule: nonzero; opacity: 1; visibility: hidden;" vector-effect="non-scaling-stroke"  x="-540" y="-540" rx="0" ry="0" width="1080" height="1080" />
</g>
<g transform="matrix(1 0 0 1 540 540)" id="63555c56-7bc0-471a-9961-100d94ec80dc"  >
</g>
<g transform="matrix(32.9 0 0 32.9 540 566.85)" id="75ab767a-289a-4df7-bd2c-f2b67d88d5ea"  >
<path style="stroke: rgb(0,0,0); stroke-width: 0; stroke-dasharray: none; stroke-linecap: butt; stroke-dashoffset: 0; stroke-linejoin: miter; stroke-miterlimit: 4; fill: rgb(255,255,255); fill-rule: nonzero; opacity: 1;" vector-effect="non-scaling-stroke"  transform=" translate(-12, -12)" d="M 24 18.588 C 23.277146467037028 18.861401096927718 22.46393121870432 18.552422216294712 22.105 17.868000000000002 L 18.655 13.097000000000001 L 18.155 12.430000000000001 L 14.152000000000001 17.874000000000002 C 13.81476363314441 18.529486510857488 13.043240861566845 18.832615324551668 12.350000000000001 18.582 L 17.508000000000003 11.662 L 12.710000000000003 5.4110000000000005 C 13.42113488609318 5.154729521093927 14.214495542865345 5.432823309204591 14.610000000000003 6.077 L 18.186000000000003 10.907 L 21.782000000000004 6.097 C 22.122055756298877 5.452780911507653 22.890841609954272 5.165561140678904 23.570000000000004 5.429 L 21.708 7.9 L 19.186 11.183 C 19.044341015954846 11.309363295537887 18.963336215529477 11.490171260816755 18.963336215529477 11.68 C 18.963336215529477 11.869828739183244 19.044341015954846 12.050636704462114 19.186 12.177 L 23.990000000000002 18.589 z M 0.002 11.576 L 0.422 9.501000000000001 C 1.5759999999999998 5.3980000000000015 6.279999999999999 3.6910000000000016 9.516 6.231000000000002 C 11.411 7.7200000000000015 11.884 9.828000000000001 11.791 12.204 L 1.116 12.204 C 0.943 16.447 4.005 19.009 7.92 17.7 C 9.209158416057836 17.235958077385984 10.17912466204314 16.155546410672684 10.501999999999999 14.824 C 10.709 14.158 11.049999999999999 14.044 11.675999999999998 14.236 C 11.464649611745875 15.881930760835267 10.510538515945974 17.34018398836721 9.086999999999998 18.193 C 6.706261702021859 19.495241748648038 3.7580696080300697 19.11874801422505 1.7809999999999988 17.26 C 0.8280292673633134 16.187388017477744 0.2520761965648026 14.832493537513932 0.14099999999999646 13.402 C 0.14099999999999802 13.167000000000002 0.060999999999998014 12.947000000000001 0.006999999999998008 12.736 C 0.002132030175048512 12.349686132597029 -0.00020135337662211938 11.96334448454055 7.216449660063518e-15 11.577000000000035 z M 1.129 11.290000000000001 L 10.783 11.290000000000001 C 10.722999999999999 8.214 8.782 6.032000000000001 6.193 6.012000000000001 C 3.3109999999999995 5.972000000000001 1.2489999999999997 8.106000000000002 1.1219999999999999 11.276000000000002 z" stroke-linecap="round" />
</g>
</svg>