<?xml version="1.0" encoding="utf-8"?>
<!-- Generator: Adobe Illustrator 26.5.0, SVG Export Plug-In . SVG Version: 6.00 Build 0)  -->
<svg version="1.1" id="Layer_1" xmlns="http://www.w3.org/2000/svg" xmlns:xlink="http://www.w3.org/1999/xlink" x="0px" y="0px"
	 viewBox="0 0 512 512" style="enable-background:new 0 0 512 512;" xml:space="preserve">
<style type="text/css">
	.st0{fill:url(#SVGID_1_);}
	.st1{fill:url(#SVGID_00000142897177173172658210000007041816023409029300_);}
	.st2{fill:url(#SVGID_00000127027208593351496170000014477493904130608815_);}
	.st3{fill:#231F1F;}
</style>
<g>
	
		<linearGradient id="SVGID_1_" gradientUnits="userSpaceOnUse" x1="7.3875" y1="504.8713" x2="7.5923" y2="504.8713" gradientTransform="matrix(99.8224 -58.9835 58.9835 99.8224 -30289.7148 -49658.2812)">
		<stop  offset="0" style="stop-color:#909CA9"/>
		<stop  offset="1" style="stop-color:#EDEDEE"/>
	</linearGradient>
	<path class="st0" d="M347.12,180.83l-56.54,18.46L241.38,221l-13.76,3.63c-3.51,3.34-7.18,6.71-11.15,10.13
		c-4.36,3.76-8.42,7.18-11.54,9.66c-3.46,2.74-8.58,7.87-11.19,11.11c-3.89,4.87-6.97,10.04-8.29,14.01
		c-2.36,7.18-1.19,14.45,3.34,21.15c5.81,8.54,17.39,17.27,30.9,23.2c6.89,3.03,18.46,6.93,27.18,9.1
		c14.49,3.68,42.53,7.64,57.95,8.25c3.11,0.13,7.31,0.13,7.48,0c0.34-0.21,2.74-4.78,5.51-10.46c9.48-19.36,16.33-37.52,20.04-53.04
		c2.22-9.4,3.97-21.92,5.13-36.75c0.29-4.15,0.42-18.04,0.17-22.74c-0.38-7.69-1.07-13.93-2.13-20.04c-0.17-0.9-0.21-1.71-0.13-1.75
		c0.17-0.13,0.69-0.29,7.64-2.31L347.12,180.83L347.12,180.83L347.12,180.83L347.12,180.83z M334.22,188.4
		c0.52,0,1.88,13.12,2.22,21.41c0.08,1.75,0.04,2.9-0.04,2.9c-0.34,0-7.22-4.05-12.13-7.14c-4.28-2.69-12.4-8.08-13.68-9.1
		c-0.43-0.29-0.38-0.34,3.11-1.54C319.64,192.93,333.74,188.4,334.22,188.4z M305.4,197.88c0.38,0,1.36,0.56,3.72,2.01
		c8.81,5.51,20.77,12.18,25.89,14.41c1.59,0.69,1.75,0.42-1.88,2.9c-7.79,5.3-17.48,10.51-29.36,15.77
		c-2.09,0.94-3.84,1.67-3.89,1.67c-0.08,0,0.17-1.07,0.52-2.36c2.86-10.65,4.49-21.41,4.57-30.05c0.04-4.28,0.04-4.28,0.42-4.4
		C305.32,197.88,305.36,197.88,305.4,197.88z M299.47,200.16c0.25,0.25,0.08,9.83-0.25,12.44c-0.77,6.24-1.96,12.05-3.93,18.59
		c-0.48,1.59-0.9,2.9-0.98,2.99c-0.17,0.21-6.03-5.51-7.95-7.73c-3.34-3.84-5.93-7.69-7.87-11.46c-0.98-1.92-2.52-5.68-2.4-5.81
		C276.78,208.7,299.3,199.99,299.47,200.16z M271.51,211.14c0.04,0,0.08,0,0.13,0.04c0.08,0.08,0.38,0.77,0.65,1.54
		c1.36,3.72,4.45,9.19,7.1,12.69c2.9,3.84,6.71,7.95,9.88,10.65c1.02,0.86,1.96,1.67,2.09,1.8c0.25,0.25,0.34,0.21-6.62,2.86
		c-8.08,3.07-16.87,6.16-26.97,9.4c-2.41,0.77-4.81,1.56-7.22,2.36c-0.38,0.13-0.25-0.08,0.86-1.84
		c4.99-7.83,12.61-23.16,16.87-34.02c0.73-1.88,1.46-3.76,1.59-4.19c0.17-0.6,0.38-0.81,0.94-1.11
		C271.09,211.22,271.39,211.14,271.51,211.14z M262.97,214.69c0.13,0.08-2.05,4.66-4.19,8.85c-4.15,8.08-8.68,16.03-14.74,25.68
		c-1.02,1.67-2.01,3.21-2.13,3.38c-0.21,0.29-0.29,0.21-0.98-1.11c-1.46-2.86-2.65-6.54-3.3-9.92c-0.65-3.34-0.52-9.15,0.21-12.74
		c0.56-2.65,0.52-2.61,1.8-3.25C245.1,222.8,262.8,214.51,262.97,214.69z M336.7,217.68v1.8c0,9.52-1.02,22.61-2.52,32.14
		c-0.25,1.67-0.48,3.03-0.52,3.07c0,0-1.23-0.34-2.69-0.77c-6.41-2.01-13.38-4.95-19.67-8.42c-4.15-2.26-10.17-5.99-10-6.16
		c0.04-0.04,1.84-0.98,3.93-2.09c8.37-4.36,16.41-9.06,23.38-13.72c2.61-1.75,6.54-4.57,7.39-5.34L336.7,217.68z M230.71,230.33
		c0.17,0,0.13,0.34-0.13,1.88c-0.17,1.11-0.38,3.16-0.46,4.57c-0.34,6.24,0.69,10.86,3.76,17.18c0.86,1.75,1.54,3.21,1.5,3.25
		c-0.29,0.25-28.59,8.54-37.48,10.98c-2.65,0.73-4.95,1.36-5.13,1.42c-0.29,0.08-0.34,0.04-0.21-0.69
		c0.98-6.28,5.77-14.49,12.44-21.41c4.45-4.61,8-7.31,14.06-10.77c4.36-2.48,11.07-6.2,11.59-6.37
		C230.61,230.33,230.67,230.33,230.71,230.33z M297.38,242.25c0.04-0.04,1.07,0.52,2.3,1.23c9.15,5.3,21.88,10.21,32.74,12.74
		l0.98,0.21l-1.37,0.77c-5.68,3.16-24.37,10.94-43.47,18.08c-2.78,1.02-5.51,2.05-6.03,2.26c-0.52,0.21-0.98,0.34-0.98,0.29
		s0.77-1.54,1.75-3.38c5.34-10,10.73-22.18,13.47-30.65C297.11,243.02,297.32,242.29,297.38,242.25L297.38,242.25z M290.58,244.47
		c0.04,0.04-0.29,0.94-0.73,1.96c-3.72,9.02-8.58,18.85-14.83,29.88c-1.59,2.82-2.9,5.09-2.95,5.09c-0.04,0-1.32-0.77-2.86-1.71
		c-9.06-5.55-17.1-12.4-22.35-19.02l-0.77-0.94l3.89-1.07c13.93-3.8,25.77-7.91,37.52-12.95
		C289.18,245.03,290.54,244.47,290.58,244.47z M332.8,259.21C332.8,259.21,332.84,259.25,332.8,259.21
		c0.04,0.98-2.13,9.79-3.93,16.16c-1.5,5.34-2.78,9.52-5.13,16.93c-1.02,3.25-1.92,5.95-1.96,5.95c-0.04,0-0.29-0.04-0.56-0.13
		c-12.69-2.31-24.06-5.51-34.75-9.79c-2.99-1.19-7.27-3.11-7.52-3.34c-0.08-0.08,2.48-1.28,5.72-2.69
		c19.44-8.5,39.61-18.17,46.54-22.3C332.03,259.48,332.67,259.21,332.8,259.21z M235.32,262.55c0.08,0.08-5.34,7.91-12.95,18.54
		c-2.65,3.72-5.72,8.08-6.87,9.71c-1.15,1.63-2.9,4.19-3.89,5.72l-1.8,2.78l-1.92-1.63c-2.26-1.88-6.2-5.89-7.95-8.12
		c-3.68-4.57-6.16-9.4-7.14-13.8c-0.48-2.05-0.48-3.07-0.04-3.21c0.65-0.17,12.05-2.86,22.74-5.34c5.95-1.36,12.82-2.99,15.3-3.59
		C233.26,263.01,235.28,262.55,235.32,262.55z M240.8,264.64l1.36,1.54c6.16,6.89,12.44,11.97,20.04,16.41
		c1.37,0.77,2.4,1.46,2.3,1.5c-0.29,0.21-26.41,9.48-38.5,13.68c-6.79,2.4-12.4,4.32-12.44,4.32c-0.04,0-0.42-0.25-0.86-0.56
		l-0.77-0.56l1.23-1.8c4.01-5.81,9.06-12.18,20.04-25.43L240.8,264.64L240.8,264.64z M274.9,289.05c0.04-0.04,1.92,0.65,4.24,1.5
		c5.55,2.09,9.96,3.42,15.85,4.91c7.27,1.84,17.77,3.63,23.97,4.15c0.94,0.08,1.46,0.17,1.28,0.29c-0.29,0.17-6.58,2.27-11.19,3.72
		c-7.35,2.3-29.79,8.94-48.09,14.2c-3.38,0.98-6.28,1.8-6.45,1.84c-0.42,0.08-1.84-0.29-1.84-0.48c0-0.08,1.02-1.42,2.26-2.86
		c6.16-7.35,12.26-15.56,17.35-23.34C273.7,290.84,274.9,289.09,274.9,289.05z M267.38,289.26c0.04,0.04-2.99,4.91-8.29,13.3
		c-2.27,3.55-4.78,7.56-5.68,8.98c-0.86,1.36-2.13,3.51-2.86,4.7l-1.23,2.17l-0.65-0.17c-1.54-0.42-12.36-4.24-15.22-5.39
		c-3.55-1.42-7.22-3.11-9.96-4.57c-3.42-1.84-7.69-4.57-7.35-4.66c0.08-0.04,5.95-1.63,12.99-3.55c18.73-5.09,29.11-8.04,35.9-10.17
		C266.27,289.51,267.33,289.21,267.38,289.26z M320.58,301.74h0.04c0.17,0.42-6.75,19.67-9.27,25.73c-0.56,1.36-0.77,1.71-1.07,1.67
		c-0.73-0.04-10.77-1.46-16.89-2.36c-10.65-1.63-28.5-4.74-32.99-5.77l-1.02-0.21l6.37-1.46c13.68-3.07,20.26-4.74,26.92-6.79
		c8.42-2.57,16.75-5.77,25.18-9.71C319.17,302.25,320.29,301.78,320.58,301.74z"/>
	
		<linearGradient id="SVGID_00000031192416425881869740000003854770579891411886_" gradientUnits="userSpaceOnUse" x1="6.8734" y1="514.5841" x2="7.0782" y2="514.5841" gradientTransform="matrix(80.3196 0 0 80.3196 -324.8057 -41255.4375)">
		<stop  offset="0" style="stop-color:#939FAB"/>
		<stop  offset="1" style="stop-color:#DCDEE1"/>
	</linearGradient>
	<path style="fill:url(#SVGID_00000031192416425881869740000003854770579891411886_);" d="M288.82,49.03
		c-0.94-0.13-16.12,5.34-25.89,9.31c-13.2,5.39-23.47,10.52-29.79,14.95c-2.36,1.67-5.3,4.61-5.77,5.77
		c-0.17,0.42-0.25,0.94-0.25,1.46l5.72,5.43l13.63,4.36l32.45,5.81l37.1,6.37l0.38-3.21c-0.13,0-0.21-0.04-0.34-0.04l-4.87-0.77
		l-0.98-1.75c-5.05-8.89-10.6-19.92-13.84-27.35c-2.52-5.77-4.91-12.44-6.24-17.23C289.39,49.24,289.3,49.07,288.82,49.03
		L288.82,49.03L288.82,49.03L288.82,49.03z M288.14,51.21h0.04c0.04,0.04,0.21,1.23,0.38,2.65c0.73,5.99,2.05,11.75,4.15,18
		c1.59,4.7,1.59,4.45-0.25,3.89c-4.36-1.19-23.89-4.57-38.04-6.54c-2.26-0.29-4.19-0.6-4.19-0.65c-0.17-0.17,10.21-5.6,14.78-7.73
		C270.88,58.13,286.94,51.42,288.14,51.21z M246.94,70.36l1.67,0.56c9.06,3.07,31.84,7.43,44.41,8.46c1.42,0.13,2.61,0.25,2.65,0.25
		c0.04,0.04-1.15,0.69-2.69,1.42c-6.07,3.03-12.74,6.75-17.35,9.62c-1.36,0.86-2.61,1.54-2.78,1.54c-0.17,0-1.07-0.17-2.01-0.29
		l-1.71-0.25l-4.28-4.19c-7.52-7.31-13.42-12.95-15.68-15.09L246.94,70.36z M245.23,71.68l6.03,7.52c3.3,4.15,6.62,8.21,7.35,9.1
		c0.73,0.9,1.32,1.63,1.28,1.67c-0.17,0.13-8.72-1.54-13.26-2.57c-4.66-1.07-6.58-1.59-9.44-2.48l-2.36-0.77v-0.6
		c0.04-2.86,3.68-7.14,9.83-11.5L245.23,71.68z M296.44,81.93c0.17,0,0.38,0.38,0.9,1.54c1.46,3.2,5.99,11.84,7.1,13.51
		c0.34,0.56,0.94,0.6-5.09-0.38c-14.49-2.36-19.15-3.11-19.15-3.2c0-0.04,0.42-0.34,0.98-0.65c4.49-2.48,9.02-5.64,13.03-9.02
		c0.98-0.81,1.88-1.59,2.05-1.71C296.3,81.93,296.39,81.89,296.44,81.93z"/>
	
		<radialGradient id="SVGID_00000047043423344261159280000004512798144350130602_" cx="7.8316" cy="503.9246" r="0.2048" gradientTransform="matrix(-102.4055 -15.3824 31.1105 -204.8109 -14565.0752 103480.8594)" gradientUnits="userSpaceOnUse">
		<stop  offset="0" style="stop-color:#EE352C"/>
		<stop  offset="1" style="stop-color:#A91D22"/>
	</radialGradient>
	<path style="fill:url(#SVGID_00000047043423344261159280000004512798144350130602_);" d="M227.67,78.47c0,0-0.94,1.5-0.04,3.72
		c0.56,1.36,2.17,3.03,4.01,4.74c0,0,19.02,18.54,21.32,21.2c10.51,12.13,15.09,24.1,15.51,40.59c0.25,10.6-1.75,19.92-6.75,30.73
		c-8.89,19.4-27.65,40.82-56.59,64.58l4.24-1.42c2.74-2.05,6.45-4.24,15.18-9.02c20.13-11.03,42.78-21.15,70.56-31.59
		c40.01-15.04,105.78-32.66,143.22-38.38l3.89-0.6l-0.6-0.94c-3.42-5.3-5.77-8.58-8.58-12.09c-8.21-10.17-18.17-18.42-30.34-25.26
		c-16.75-9.36-38.42-16.66-65.86-22.09c-5.18-1.02-16.54-2.99-25.77-4.4c-19.57-3.03-32.22-5.13-46.16-7.52
		c-4.99-0.86-12.48-2.13-17.44-3.2c-2.57-0.56-7.48-1.71-11.32-3.03C233.05,83.31,228.61,82.1,227.67,78.47z M238.69,89.16
		c0.04-0.04,0.73,0.21,1.63,0.52c1.63,0.56,3.72,1.19,6.2,1.88c1.88,0.52,3.76,1.01,5.64,1.5c2.57,0.65,4.7,1.23,4.74,1.23
		c0.29,0.29,4.61,14.1,6.07,19.4c0.56,2.01,0.98,3.72,0.94,3.72c-0.04,0.04-0.52-0.69-1.07-1.67c-4.99-8.81-12.91-17.73-22.05-24.91
		C239.59,89.97,238.69,89.2,238.69,89.16z M259.72,94.98c0.21,0,1.15,0.13,2.3,0.38c7.27,1.63,20.3,4.1,28.63,5.51
		c1.42,0.21,2.52,0.48,2.52,0.56s-0.52,0.38-1.15,0.73c-1.42,0.73-7.1,4.1-8.98,5.39c-4.74,3.16-9.02,6.58-12.09,9.66
		c-1.23,1.23-2.31,2.26-2.31,2.26s-0.25-0.73-0.48-1.63c-1.54-5.95-4.74-14.74-7.64-20.94c-0.48-0.98-0.86-1.88-0.86-1.96
		C259.68,95.02,259.68,94.98,259.72,94.98L259.72,94.98z M296.74,102.02c0.25,0.08,0.69,1.54,1.54,4.74
		c1.59,6.2,2.31,13.12,2.05,19.57c-0.08,1.8-0.17,3.46-0.25,3.68l-0.13,0.42l-2.22-0.73c-4.57-1.46-12.01-3.63-18.38-5.43
		c-3.63-0.98-6.58-1.88-6.58-1.96c0-0.25,5.3-5.55,7.56-7.56C284.64,110.96,296.34,101.89,296.74,102.02z M299.68,102.46
		c0.13-0.13,17.69,2.9,25.68,4.45c5.95,1.15,14.57,2.95,15.09,3.16c0.25,0.08-0.65,0.6-3.51,1.88c-11.28,5.09-19.67,9.66-28,15.22
		c-2.17,1.46-4.01,2.65-4.05,2.65c-0.04,0-0.08-1.23-0.08-2.74c0-8.12-1.63-16.33-4.61-23.24
		C299.89,103.13,299.64,102.5,299.68,102.46z M345.12,111.43c0.13,0.13-0.42,3.59-0.94,5.64c-1.54,6.37-5.68,15.81-10.77,24.7
		c-0.9,1.59-1.71,2.86-1.8,2.9c-0.08,0.04-1.23-0.6-2.57-1.37c-4.95-2.9-10.6-5.64-16.75-8.21c-1.71-0.73-3.2-1.32-3.25-1.42
		c-0.29-0.25,13.47-9.36,20.73-13.72C335.54,116.47,344.95,111.25,345.12,111.43z M348.36,111.94c0.38,0,8.16,2.13,12.22,3.34
		c10.04,2.99,21.59,7.22,29.11,10.65l3.11,1.42l-2.17,0.52c-18.38,4.24-34.1,9.1-49.28,15.26c-1.23,0.52-2.36,0.94-2.44,0.94
		c-0.08,0,0.34-0.98,0.9-2.17c4.57-9.71,7.52-19.83,8.25-28.46C348.1,112.58,348.23,111.94,348.36,111.94L348.36,111.94z
		 M270.93,129.72c0.13-0.13,6.07,1.28,9.27,2.17c4.87,1.37,15.22,4.83,15.22,5.09c0,0.04-1.15,1.02-2.52,2.22
		c-5.6,4.66-10.98,9.57-17.44,15.81c-1.92,1.84-3.55,3.34-3.63,3.34c-0.08,0-0.13-0.25-0.08-0.6c0.98-7.18,0.77-16.41-0.6-25.77
		C271.01,130.79,270.88,129.77,270.93,129.72z M395.75,129.85c0.08,0.08-2.74,4.53-4.53,7.06c-2.57,3.68-6.33,8.54-14.83,19.23
		c-4.49,5.64-9.52,12.01-11.19,14.14c-1.71,2.13-3.11,3.93-3.17,3.93c-0.04,0-0.6-0.77-1.19-1.71
		c-4.78-7.18-10.52-13.47-17.31-19.11c-1.28-1.07-2.69-2.22-3.16-2.57c-0.48-0.34-0.86-0.69-0.86-0.73c0-0.13,7.27-3.25,12.78-5.47
		c9.66-3.93,22.82-8.63,32.7-11.67C390.16,131.34,395.67,129.77,395.75,129.85z M399.05,130.71c0.17-0.04,1.19,0.48,2.44,1.19
		c10.38,5.95,20.55,13.59,28.59,21.46c2.26,2.22,7.87,8.04,7.77,8.08c0,0-1.96,0.17-4.28,0.34c-18,1.37-41.03,5.18-63.16,10.51
		c-1.5,0.34-2.82,0.65-2.9,0.65s1.59-1.67,3.68-3.68c12.99-12.53,18.94-20.42,25.94-34.54
		C398.11,132.63,398.97,130.83,399.05,130.71C399.01,130.71,399.01,130.71,399.05,130.71z M303.88,140.44
		c0.6,0.13,6.16,2.74,10.34,4.83c3.84,1.92,9.62,4.99,9.92,5.26c0.04,0.04-2.01,1.11-4.53,2.36c-8.04,4.01-14.91,7.83-22.09,12.18
		c-2.05,1.23-3.76,2.27-3.8,2.27c-0.17,0-0.13-0.17,1.02-2.27c3.84-7.01,6.93-15.39,8.68-23.55
		C303.57,140.88,303.75,140.44,303.88,140.44z M298.32,141.47c0.13,0.13-1.32,5.39-2.22,8.25c-1.75,5.43-4.7,12.22-7.56,17.35
		c-0.69,1.19-1.71,2.95-2.27,3.93l-1.07,1.71l-2.4-2.3c-2.78-2.69-5.05-4.36-7.95-5.85c-1.15-0.6-2.05-1.11-2.05-1.19
		c0-0.34,7.31-6.97,12.91-11.75C289.72,148.14,298.18,141.34,298.32,141.47z M332.3,155.45l2.09,1.36
		c4.78,3.11,10.42,7.27,14.74,10.9c2.44,2.01,7.14,6.24,8.08,7.27l0.52,0.56l-3.46,0.98c-19.57,5.43-34.7,10.25-52.35,16.75
		c-1.96,0.73-3.63,1.32-3.76,1.32c-0.25,0-0.48,0.21,3.93-3.84c11.28-10.38,21.28-21.84,28.71-32.99L332.3,155.45z M323.36,157.67
		c0.08,0.08-5.77,8.33-9.27,12.99c-4.19,5.55-11.63,14.87-16.75,20.94c-2.13,2.52-3.97,4.61-4.05,4.66
		c-0.13,0.04-0.17-0.6-0.17-1.59c0-5.18-1.32-10.69-3.63-15.39c-0.98-1.96-1.15-2.44-0.94-2.65c0.81-0.73,13.24-7.83,21.11-12.05
		C314.94,161.78,323.23,157.58,323.36,157.67L323.36,157.67z M269.34,170.92c0.13,0,1.11,0.52,2.22,1.11
		c2.74,1.5,5.18,3.16,7.35,4.95c0.08,0.08-1.02,0.98-2.48,2.05c-4.05,2.9-10.21,7.56-13.8,10.42c-3.76,2.99-3.89,3.07-3.46,2.44
		c2.82-4.32,4.24-6.75,5.72-9.88c1.32-2.78,2.65-6.07,3.59-8.94C268.82,171.86,269.26,170.92,269.34,170.92z M283.75,182.2
		c0.21-0.04,0.48,0.34,1.63,2.05c2.44,3.63,4.32,8.5,4.78,12.44l0.08,0.86l-5.85,2.26c-10.48,4.05-20.13,8.08-26.67,11.07
		c-1.84,0.86-5.04,2.4-7.14,3.42c-2.09,1.07-3.8,1.88-3.8,1.84s1.32-1.02,2.95-2.22c12.78-9.27,23.85-19.44,32.14-29.61
		c0.9-1.07,1.71-2.05,1.8-2.09L283.75,182.2L283.75,182.2z M277.11,183.83c0.17,0.17-4.7,5.68-8.04,9.06
		c-8.25,8.42-16.41,15-26.54,21.41c-1.28,0.81-2.44,1.54-2.57,1.63c-0.29,0.17,0.08-0.25,4.53-5.09c2.82-3.03,4.95-5.6,7.39-8.77
		c1.63-2.09,1.92-2.4,4.28-4.05C262.45,193.48,276.94,183.66,277.11,183.83z"/>
	<path class="st3" d="M92.05,360.8c-0.79,0-1.57,0.07-2.36,0.07c-15.92,0.84-26.67,7.86-32.95,21.55
		c-5.37,12.37-4.78,28.56,0.06,41.02c5.64,12.16,14.74,18.59,29.93,21.01c3.21,0.53,5.37,2.29,11.6,9.57l7.66,8.98h13.9l-9.24-9.31
		c-5.11-5.11-9.24-9.55-9.24-9.95s1.95-1.25,4.32-1.96c7.8-2.36,14.27-8.39,18.8-17.62c3.66-7.41,4.19-9.71,4.71-18.92
		C130.62,377.76,116.15,360.59,92.05,360.8L92.05,360.8z M104.23,432.57c-6.76,3.27-16.58,3.93-22.98,1.57
		c-6.62-2.43-13.05-9.31-15.92-17.1c-3.21-8.51-2.75-24.23,0.91-31.31c5.89-11.26,13.69-16.45,25.08-16.45
		c16.9,0,26.51,10.35,27.77,29.81C120.09,415.35,114.65,427.52,104.23,432.57L104.23,432.57z M344.27,384.24
		c-5.84,0-10.3,2.36-13.3,7.01l-2.36,3.68v-9.57h-10.09v57.39h10.09V424.4c0-16.78,0.21-18.73,2.55-23.33
		c3.23-6.3,8.78-9.43,14.15-7.93l3.61,1.05v-9.95h-4.66V384.24L344.27,384.24z M285.01,383.72c-1.98,0-4.07,0.27-6.16,0.72
		c-13.49,3.53-21.11,16.45-20.63,29.74c0,11.14,2.16,16.69,7.53,22.53c11,9.03,20.96,9.75,34.38,4.91c2.29-0.98,4.78-2.1,4.78-2.1
		v-9.03l-4.78,2.48c-10.87,4.73-19.05,4.73-25.61-0.84c-4.18-4.26-6.02-9.37-6.87-15.19h40.68v-7.74
		C308.31,393.42,298.83,383.46,285.01,383.72L285.01,383.72L285.01,383.72z M268.56,408.88c0,0,1.5-9.83,7.07-13.7
		c2.68-1.89,5.77-2.81,8.77-2.81c3.02,0,6.03,0.98,8.51,2.88c5.11,3.93,5.96,13.56,5.96,13.56h-30.33L268.56,408.88L268.56,408.88z
		 M25.38,398.53c-10.94-6.62-15.79-11.4-15.19-17.03c1.7-15.58,20.96-13.42,31.62-7.53l0.07-10.48c0,0-5.89-2.55-14.35-2.69
		c-12.96-0.2-21.35,4.05-25.28,12.71c-5.77,12.76-0.66,22.4,17.8,33.13C30.41,412.67,35,417.9,35,423.61
		c0,11.8-14.22,15.91-28.88,8.51c-3.02-1.5-5.57-2.76-5.71-2.76c-0.53,3.34-0.25,11.35-0.25,11.35s4.5,1.89,11.26,3.2
		c16.76,3.34,32.02-4.52,33.46-17.3C46.14,414.62,41.8,408.33,25.38,398.53L25.38,398.53z M433.54,383.58
		c-1.96,0-4.05,0.27-6.23,0.73c-13.48,3.53-21.08,16.45-20.56,29.74c0,11.11,2.16,16.62,7.53,22.46c11,9.03,20.96,9.76,34.45,4.91
		c2.29-0.98,4.77-2.09,4.77-2.09v-9.05l-4.78,2.5c-10.89,4.71-19.08,4.71-25.61-0.86c-4.21-4.25-6.03-9.3-6.89-15.19h40.61v-7.74
		c0-15.7-9.5-25.67-23.31-25.4L433.54,383.58z M417.09,408.74c0,0,1.51-9.82,7.08-13.76c2.68-1.89,5.75-2.82,8.77-2.82
		c3,0,6.03,0.98,8.51,2.89c5.11,3.93,5.96,13.62,5.96,13.62h-30.33V408.74L417.09,408.74z M232.21,398.66
		c-10.94-6.61-15.77-11.4-15.19-17.03c1.7-15.6,20.96-13.42,31.62-7.53l0.07-10.48c0,0-5.89-2.55-14.35-2.68
		c-12.96-0.2-21.35,4.05-25.28,12.71c-5.77,12.76-0.59,22.4,17.81,33.13c10.35,6.02,14.94,11.19,14.94,16.9
		c0,11.8-14.21,15.98-28.88,8.51c-3-1.5-5.55-2.74-5.71-2.74c-0.53,3.34-0.25,11.35-0.25,11.35s4.45,1.82,11.19,3.2
		c16.78,3.35,32.04-4.5,33.48-17.28C252.9,414.77,248.58,408.49,232.21,398.66L232.21,398.66L232.21,398.66z M492.81,384.11
		c-5.84,0-10.34,2.37-13.3,7.01l-2.36,3.66v-9.55h-10.09v57.37h10.09v-18.35c0-16.76,0.2-18.73,2.55-23.31
		c3.23-6.28,8.78-9.43,14.15-7.93l3.61,1.05v-9.97L492.81,384.11L492.81,384.11z M151.99,398.32v-36.56h-10.17v80.95h42.77v-9.57
		h-32.6V398.32L151.99,398.32z M387.17,409.72l-8.39,21.81l-8.07-21.94l-8.19-24.31h-10.41c6.75,19.12,14.08,38.58,21.48,57.44
		c3.21,0.07,6.42,0,9.62,0l11.32-28.42l11.53-29.01h-9.95C396.15,385.3,391.74,396.82,387.17,409.72L387.17,409.72z M175.41,339.71
		c1.64,0,3-0.52,4.14-1.66c1.11-1.11,1.7-2.41,1.7-4.05s-0.59-3-1.7-4.05c-1.12-1.05-2.43-1.57-4.05-1.57
		c-1.66,0-3.02,0.53-4.12,1.64c-1.12,1.11-1.64,2.48-1.64,4.05c0,1.66,0.53,3.02,1.64,4.05c1.05,1.05,2.41,1.57,4.05,1.57v0.01
		H175.41z M171.81,330.4c0.98-0.98,2.16-1.43,3.68-1.43c1.43,0,2.61,0.45,3.61,1.43c0.98,0.98,1.5,2.16,1.5,3.61
		c0,1.44-0.52,2.69-1.5,3.66c-1,0.98-2.17,1.44-3.61,1.44c-1.44,0-2.62-0.45-3.61-1.44c-0.98-0.98-1.5-2.22-1.5-3.66
		C170.39,332.56,170.84,331.38,171.81,330.4z M174.24,334.54h0.66c0.46,0,0.93,0.45,1.32,1.3l0.79,1.77h1.23l-0.98-1.96
		c-0.39-0.79-0.79-1.25-1.25-1.37c0.58-0.14,1.04-0.34,1.36-0.72c0.34-0.34,0.45-0.8,0.45-1.32c0-0.6-0.18-1.05-0.59-1.39
		c-0.45-0.38-1.18-0.58-2.1-0.58h-2.09v7.34h1.05v-3.09L174.24,334.54z M174.24,331.11h0.91c0.66,0,1.12,0.14,1.39,0.34
		c0.25,0.2,0.31,0.45,0.31,0.91c0,0.86-0.53,1.25-1.5,1.25h-1.12v-2.5H174.24z M6.24,333.88c0-2.55-0.07-4.45-0.14-5.57h0.06
		c0.27,1.32,0.59,2.3,0.84,2.96l9.76,21.81h1.64l9.76-22.01c0.27-0.6,0.53-1.5,0.86-2.76h0.07c-0.2,2.17-0.27,4.07-0.27,5.58v19.25
		h3.34v-28.62h-4.19L19,344.43c-0.34,0.79-0.79,1.96-1.37,3.53h-0.14c-0.2-0.77-0.66-1.95-1.3-3.39l-8.74-20.12H2.99v28.62H6.2
		v-19.19H6.24z M39.52,333.93h2.89v17.83h-2.89V333.93z M40.96,327.4c0.6,0,1.11-0.2,1.5-0.6c0.39-0.39,0.66-0.9,0.66-1.5
		c0-0.59-0.2-1.11-0.66-1.5c-0.41-0.39-0.93-0.6-1.51-0.6c-0.59,0-1.11,0.2-1.5,0.6c-0.39,0.39-0.66,0.91-0.66,1.5
		c0,0.66,0.2,1.11,0.66,1.5C39.9,327.19,40.36,327.4,40.96,327.4L40.96,327.4z M62.97,352.14V349c-1.57,1.18-3.27,1.77-5.04,1.77
		c-2.1,0-3.8-0.72-5.05-2.1c-1.23-1.36-1.89-3.27-1.89-5.64c0-2.48,0.66-4.45,2.03-5.95c1.32-1.44,3.02-2.16,5.11-2.16
		c1.71,0,3.34,0.53,4.85,1.59v-3.34c-1.37-0.72-2.95-1.05-4.71-1.05c-3.27,0-5.82,1.05-7.73,3.09c-1.89,2.03-2.88,4.78-2.88,8.11
		c0,2.96,0.84,5.44,2.61,7.35c1.84,1.95,4.19,2.95,7.07,2.95C59.56,353.53,61.39,353.07,62.97,352.14z M71.22,342.64
		c0-2.36,0.52-4.25,1.5-5.55c0.91-1.18,2.03-1.77,3.34-1.77c1.11,0,1.89,0.2,2.48,0.66v-3.41c-0.45-0.2-1.11-0.27-1.95-0.27
		c-1.18,0-2.23,0.39-3.16,1.12c-0.98,0.77-1.75,1.95-2.22,3.45h-0.07v-4.18h-3.27v20.42h3.27v-10.48L71.22,342.64L71.22,342.64z
		 M90.02,353.53c3.09,0,5.55-1,7.39-2.96c1.84-1.95,2.75-4.59,2.75-7.86c0-3.34-0.84-5.89-2.55-7.8c-1.7-1.89-4.05-2.82-7.14-2.82
		s-5.55,0.91-7.39,2.69c-1.96,1.95-3,4.71-3,8.25c0,3.09,0.84,5.64,2.61,7.53C84.52,352.55,86.94,353.53,90.02,353.53L90.02,353.53z
		 M85.36,336.89c1.25-1.32,2.89-1.96,4.91-1.96c2.1,0,3.68,0.66,4.85,1.96c1.18,1.37,1.77,3.34,1.77,5.96c0,2.5-0.53,4.46-1.64,5.77
		c-1.11,1.37-2.75,2.1-4.91,2.1c-2.1,0-3.73-0.73-4.98-2.1c-1.23-1.39-1.84-3.27-1.84-5.77C83.41,340.37,84.05,338.34,85.36,336.89z
		 M114.51,351.75c1.25-1.11,1.91-2.48,1.91-4.19c0-1.5-0.53-2.75-1.5-3.73c-0.8-0.79-2.03-1.5-3.8-2.23
		c-1.59-0.66-2.55-1.25-3.09-1.71c-0.52-0.52-0.84-1.18-0.84-2.1c0-0.86,0.34-1.5,0.98-2.03c0.66-0.52,1.5-0.79,2.62-0.79
		c1.77,0,3.27,0.46,4.66,1.44v-3.27c-1.32-0.66-2.76-0.98-4.39-0.98c-2.1,0-3.87,0.58-5.18,1.7c-1.37,1.11-2.03,2.55-2.03,4.25
		c0,1.5,0.45,2.75,1.3,3.66c0.72,0.79,1.95,1.57,3.66,2.29c1.64,0.72,2.75,1.37,3.34,1.89c0.59,0.53,0.84,1.18,0.84,1.95
		c0,1.91-1.3,2.89-3.86,2.89c-1.96,0-3.73-0.65-5.32-1.95v3.53c1.43,0.86,3.14,1.25,5.04,1.25c2.43-0.13,4.32-0.72,5.64-1.89
		L114.51,351.75z M130.11,332.11c-3.09,0-5.55,0.91-7.39,2.69c-1.95,1.95-3,4.71-3,8.25c0,3.09,0.86,5.64,2.61,7.53
		c1.84,1.96,4.26,2.95,7.34,2.95c3.16,0,5.55-1,7.39-2.96c1.84-1.95,2.76-4.59,2.76-7.86c0-3.34-0.86-5.89-2.55-7.8
		c-1.77-1.89-4.14-2.82-7.14-2.82L130.11,332.11z M136.45,342.84c0,2.5-0.52,4.46-1.64,5.77c-1.11,1.37-2.75,2.1-4.91,2.1
		c-2.1,0-3.73-0.73-4.98-2.1c-1.23-1.39-1.84-3.27-1.84-5.77c0-2.62,0.66-4.66,1.96-6.02c1.23-1.3,2.88-1.96,4.91-1.96
		s3.66,0.66,4.84,1.96C135.86,338.27,136.45,340.22,136.45,342.84L136.45,342.84z M145.3,353.07h3.27v-17.69h4.78v-2.75h-4.78v-3.16
		c0-2.88,1.11-4.31,3.41-4.31c0.77,0,1.56,0.2,2.15,0.52v-2.95c-0.59-0.27-1.37-0.32-2.36-0.32c-1.77,0-3.21,0.53-4.39,1.64
		c-1.37,1.3-2.1,3-2.1,5.3v3.35h-3.45v2.75h3.45v17.62L145.3,353.07z M158.72,347.5c0,4,1.77,6.03,5.37,6.03
		c1.3,0,2.29-0.21,3.09-0.67v-2.81c-0.6,0.45-1.32,0.66-2.1,0.66c-1.11,0-1.89-0.27-2.36-0.86c-0.46-0.59-0.73-1.57-0.73-2.95
		v-11.53h5.18v-2.75h-5.18v-6.02c-1.12,0.39-2.23,0.72-3.27,1.05v4.97h-3.53v2.75h3.53V347.5L158.72,347.5z M510.25,385.16
		c-1.11-1.05-2.43-1.57-4.05-1.57c-1.66,0-3.02,0.53-4.14,1.66c-1.11,1.11-1.64,2.48-1.64,4.05c0,1.64,0.53,3,1.63,4.05
		c1.11,1.05,2.48,1.57,4.14,1.57c1.63,0,3-0.53,4.14-1.64c1.11-1.12,1.68-2.43,1.68-4.05C511.94,387.57,511.34,386.21,510.25,385.16
		L510.25,385.16z M509.71,392.89c-0.98,0.98-2.16,1.43-3.61,1.43c-1.43,0-2.61-0.45-3.61-1.43c-0.98-1-1.5-2.23-1.5-3.68
		c0-1.43,0.45-2.61,1.44-3.61c0.98-0.98,2.16-1.43,3.66-1.43c1.43,0,2.61,0.45,3.61,1.43c0.98,1,1.5,2.17,1.5,3.61
		C511.21,390.73,510.76,391.89,509.71,392.89z M506.77,389.55c0.59-0.14,1.05-0.39,1.37-0.72c0.34-0.34,0.45-0.8,0.45-1.32
		c0-0.59-0.18-1.05-0.59-1.37c-0.45-0.38-1.18-0.58-2.1-0.58h-2.09v7.34h1.05v-3.09h0.66c0.45,0,0.9,0.45,1.3,1.3l0.79,1.77h1.25
		l-0.98-1.96c-0.34-0.86-0.73-1.25-1.12-1.37L506.77,389.55L506.77,389.55z M506.05,388.89h-1.12v-2.48h0.93
		c0.66,0,1.11,0.13,1.37,0.32c0.27,0.2,0.32,0.45,0.32,0.91C507.55,388.5,507.02,388.89,506.05,388.89L506.05,388.89z
		 M323.32,331.79h0.91v-7.34h2.43v-0.91h-5.77v0.91h2.43L323.32,331.79L323.32,331.79z M328.87,326.27c0-0.72,0-1.3-0.06-1.63
		c0.06,0.39,0.2,0.66,0.25,0.84l2.82,6.3h0.45l2.82-6.35c0.07-0.2,0.14-0.45,0.27-0.79c-0.06,0.66-0.06,1.18-0.06,1.57v5.55h0.98
		v-8.25h-1.18l-2.55,5.7c-0.06,0.21-0.27,0.6-0.39,1.05h-0.07c-0.06-0.27-0.18-0.53-0.38-0.98l-2.55-5.77h-1.32v8.26h0.93v-5.51
		H328.87z"/>
</g>
</svg>
