<?xml version="1.0" encoding="utf-8"?>
<!-- Generator: Adobe Illustrator 26.5.0, SVG Export Plug-In . SVG Version: 6.00 Build 0)  -->
<svg version="1.1" id="Layer_1" xmlns="http://www.w3.org/2000/svg" xmlns:xlink="http://www.w3.org/1999/xlink" x="0px" y="0px"
	 viewBox="0 0 512 512" style="enable-background:new 0 0 512 512;" xml:space="preserve">
<style type="text/css">
	.st0{fill:#672A7A;}
	.st1{fill:#FFFFFF;}
</style>
<g id="XMLID_1_">
	<rect id="XMLID_5_" class="st0" width="512" height="512"/>
	<g id="XMLID_3_">
		<path id="XMLID_4_" class="st1" d="M329.5,195.68c2.67-2.38,3.93-5.19,3.93-8.7c0-3.23-1.12-5.75-3.09-7.86
			c-1.54-1.68-4.21-3.23-7.86-4.77c-3.23-1.4-5.47-2.52-6.45-3.51c-1.12-1.12-1.68-2.52-1.68-4.49c0-1.82,0.7-3.23,2.1-4.35
			c1.4-1.12,3.23-1.68,5.47-1.68c3.65,0,6.87,0.98,9.68,3.09v-6.87c-2.67-1.4-5.75-1.96-9.12-1.96c-4.49,0-8,1.12-10.94,3.51
			c-2.81,2.38-4.21,5.33-4.21,8.84c0,3.23,0.84,5.75,2.67,7.72c1.54,1.68,4.07,3.23,7.72,4.91c3.51,1.54,5.89,2.81,7.01,3.93
			c1.26,1.12,1.82,2.52,1.82,4.07c0,3.93-2.67,6.03-8.14,6.03c-4.07,0-7.72-1.4-11.08-4.07v7.43c3.09,1.68,6.59,2.52,10.66,2.52
			C322.63,199.47,326.56,198.21,329.5,195.68z"/>
		<path id="XMLID_29_" class="st1" d="M394.03,198.35h6.87v-37.03H411v-5.75h-10.1v-6.59c0-6.03,2.38-9.12,7.15-9.12
			c1.68,0,3.23,0.42,4.49,1.12v-6.17c-1.26-0.56-2.81-0.7-4.91-0.7c-3.65,0-6.73,1.12-9.26,3.51c-2.95,2.67-4.35,6.31-4.35,11.08
			v7.01h-7.29v5.75h7.29V198.35z"/>
		<path id="XMLID_30_" class="st1" d="M175.34,144.62c1.26,0,2.38-0.42,3.23-1.26c0.84-0.84,1.26-1.96,1.26-3.23
			c0-1.26-0.42-2.24-1.26-3.09c-0.84-0.84-1.96-1.26-3.23-1.26c-1.26,0-2.24,0.42-3.23,1.26c-0.84,0.84-1.26,1.96-1.26,3.09
			c0,1.26,0.42,2.38,1.26,3.23C173.1,144.2,174.22,144.62,175.34,144.62z"/>
		<path id="XMLID_31_" class="st1" d="M209.71,199.47c4.49,0,8.42-0.98,11.78-2.95v-6.45c-3.23,2.52-6.73,3.65-10.52,3.65
			c-4.49,0-8-1.4-10.66-4.35c-2.67-2.95-3.93-6.87-3.93-11.78c0-5.19,1.4-9.4,4.35-12.48c2.81-3.09,6.31-4.63,10.66-4.63
			c3.65,0,7.01,1.12,10.24,3.37v-7.01c-2.95-1.4-6.17-2.24-9.96-2.24c-6.73,0-12.2,2.1-16.27,6.45c-4.07,4.35-6.03,9.96-6.03,16.97
			c0,6.31,1.82,11.36,5.47,15.29C198.63,197.37,203.54,199.47,209.71,199.47z"/>
		<path id="XMLID_34_" class="st1" d="M453.51,158.93h1.26c0.98,0,1.82,0.84,2.67,2.67l1.54,3.51h2.52l-1.96-3.93
			c-0.84-1.54-1.54-2.52-2.38-2.67l0,0c1.12-0.28,2.1-0.7,2.67-1.4c0.7-0.7,0.98-1.54,0.98-2.52c0-1.12-0.42-1.96-1.12-2.81
			c-0.98-0.84-2.24-1.26-4.07-1.26h-4.07v14.59h2.1v-6.17H453.51z M453.51,152.34h1.82c1.26,0,2.1,0.28,2.67,0.7
			c0.42,0.42,0.7,0.98,0.7,1.82c0,1.68-0.98,2.52-2.95,2.52h-2.24L453.51,152.34L453.51,152.34z"/>
		<path id="XMLID_35_" class="st1" d="M421.94,186.7c0,8.42,3.79,12.62,11.22,12.62c2.67,0,4.77-0.42,6.45-1.4v-5.89
			c-1.26,0.98-2.67,1.4-4.49,1.4c-2.24,0-3.93-0.56-4.91-1.82c-0.98-1.12-1.4-3.23-1.4-6.17v-24.13h10.8v-5.75h-10.8v-12.62
			c-2.38,0.84-4.63,1.54-6.87,2.24v10.52h-7.29v5.75h7.29V186.7z"/>
		<path id="XMLID_40_" class="st1" d="M455.89,169.17c3.23,0,5.89-1.12,8.14-3.23c2.24-2.1,3.37-4.91,3.37-8.14
			c0-3.23-1.12-6.03-3.37-8.14c-2.1-2.1-4.91-3.09-8-3.09c-3.23,0-6.03,1.12-8.14,3.23c-2.24,2.24-3.23,4.91-3.23,8
			c0,3.23,1.12,5.89,3.23,8.14C450,168.19,452.66,169.17,455.89,169.17z M448.74,150.79c1.96-1.96,4.35-2.95,7.15-2.95
			s5.19,0.98,7.15,2.81c1.96,1.96,2.95,4.35,2.95,7.15c0,2.81-0.98,5.33-2.95,7.15c-1.96,1.96-4.35,2.95-7.15,2.95
			s-5.19-0.98-7.15-2.81c-1.96-1.96-2.95-4.35-2.95-7.29C445.93,155.14,446.91,152.76,448.74,150.79z"/>
		<rect id="XMLID_41_" x="171.84" y="155.56" class="st1" width="6.87" height="42.78"/>
		<path id="XMLID_44_" class="st1" d="M278.16,199.47c6.45,0,11.64-2.1,15.57-6.17c3.79-4.07,5.75-9.54,5.75-16.41
			c0-6.87-1.82-12.34-5.33-16.41c-3.65-3.93-8.56-5.89-15.01-5.89s-11.64,1.96-15.57,5.75c-4.21,4.07-6.31,9.82-6.31,17.25
			c0,6.59,1.82,11.78,5.47,15.71C266.52,197.37,271.71,199.47,278.16,199.47z M268.34,164.54c2.52-2.81,6.03-4.21,10.24-4.21
			c4.35,0,7.72,1.4,10.1,4.07c2.52,2.81,3.65,7.01,3.65,12.48c0,5.19-1.12,9.26-3.51,12.2c-2.38,2.95-5.75,4.35-10.38,4.35
			c-4.35,0-7.86-1.4-10.38-4.35c-2.67-2.81-3.93-6.87-3.93-12.06C264.28,171.7,265.68,167.49,268.34,164.54z"/>
		<path id="XMLID_47_" class="st1" d="M376.64,193.16c3.79-4.07,5.75-9.54,5.75-16.41s-1.82-12.34-5.33-16.41
			c-3.65-3.93-8.56-5.89-15.01-5.89c-6.45,0-11.64,1.96-15.57,5.75c-4.21,4.07-6.31,9.82-6.31,17.25c0,6.59,1.82,11.78,5.47,15.71
			c3.79,4.07,8.84,6.17,15.29,6.17C367.52,199.47,372.71,197.37,376.64,193.16z M347.18,177.17c0-5.47,1.4-9.68,4.07-12.62
			c2.52-2.81,6.03-4.21,10.24-4.21c4.35,0,7.72,1.4,10.1,4.07c2.52,2.81,3.79,7.01,3.79,12.48c0,5.19-1.12,9.26-3.51,12.2
			c-2.38,2.95-5.75,4.35-10.38,4.35c-4.35,0-7.86-1.4-10.38-4.35C348.58,186.42,347.18,182.36,347.18,177.17z"/>
		<polygon id="XMLID_48_" class="st1" points="275.78,303.83 332.59,303.83 332.59,287.14 275.78,287.14 275.78,234.82 
			337.08,234.82 337.08,218.13 257.4,218.13 257.4,375.37 340.73,375.37 340.73,358.68 275.78,358.68 		"/>
		<polygon id="XMLID_49_" class="st1" points="357.98,234.82 403.43,234.82 403.43,375.37 421.8,375.37 421.8,234.82 467.11,234.82 
			467.11,218.13 357.98,218.13 		"/>
		<path id="XMLID_50_" class="st1" d="M56.67,353.21c-3.37,0-6.17,1.26-8.56,3.65c-2.38,2.38-3.51,5.33-3.51,8.84
			c0,3.37,1.12,6.31,3.51,8.7c2.38,2.38,5.19,3.65,8.56,3.65c3.51,0,6.31-1.26,8.84-3.65c2.38-2.38,3.65-5.33,3.65-8.7
			c0-3.37-1.26-6.31-3.65-8.7C62.98,354.33,60.04,353.21,56.67,353.21z"/>
		<path id="XMLID_51_" class="st1" d="M243.52,157.11c-2.1,1.68-3.65,4.07-4.63,7.29h-0.14v-8.84h-6.87v42.78h6.87v-21.88
			c0-4.91,1.12-8.84,3.23-11.64c1.96-2.52,4.21-3.79,7.01-3.79c2.24,0,4.07,0.42,5.19,1.4v-7.15c-0.98-0.42-2.24-0.56-4.07-0.56
			C247.72,154.86,245.48,155.56,243.52,157.11z"/>
		<polygon id="XMLID_52_" class="st1" points="102.4,146.45 102.54,146.45 124.84,198.35 128.21,198.35 150.51,146.45 
			150.65,146.45 150.09,198.35 157.11,198.35 157.11,138.45 148.27,138.45 126.67,187.41 126.25,187.41 105.21,138.45 95.95,138.45 
			95.95,198.35 102.68,198.35 		"/>
		<polygon id="XMLID_53_" class="st1" points="204.24,350.97 119.79,218.13 95.81,218.13 95.81,375.37 114.32,375.37 114.32,240.57 
			200.17,375.37 222.47,375.37 222.47,218.13 204.24,218.13 		"/>
	</g>
</g>
</svg>
